<?xml version="1.0" encoding="UTF-8"?>
<svg version="1.1" xmlns="http://www.w3.org/2000/svg" width="1413" height="276" viewBox="0 0 1413 276">
<path d="M0 0 C6.3299893 4.87977503 11.91311223 10.39294713 17.4609375 16.1328125 C18.1209375 16.7928125 18.7809375 17.4528125 19.4609375 18.1328125 C20.0796875 17.2975 20.0796875 17.2975 20.7109375 16.4453125 C33.47081767 -0.41595773 51.16842288 -12.70208397 72.4609375 -15.8671875 C73.14929688 -15.97675781 73.83765625 -16.08632813 74.546875 -16.19921875 C96.77032076 -19.20780798 119.38496014 -14.38967438 137.4609375 -0.8671875 C155.37063211 13.7454352 166.0094374 32.32660182 169.2265625 55.296875 C169.63553407 60.24543096 169.61923119 65.17294362 169.4609375 70.1328125 C170.15316406 70.08640625 170.84539062 70.04 171.55859375 69.9921875 C187.68362168 69.39732481 202.65039252 74.9764139 214.8359375 85.5078125 C224.14612737 94.4558556 231.74637823 105.17583905 232.69921875 118.453125 C232.90195074 128.84580716 231.73730002 137.66155596 224.34765625 145.53515625 C213.61627779 154.62238977 201.58210144 155.43536924 188.090271 155.39350891 C186.77261726 155.39733446 185.45496352 155.40116001 184.09738088 155.40510148 C180.46426426 155.41533435 176.83124684 155.41321175 173.19812226 155.40892088 C169.27023917 155.40644501 165.34237943 155.41547855 161.414505 155.42295837 C153.7282384 155.43568412 146.04200676 155.43750167 138.3557314 155.43515811 C132.10465571 155.4333722 125.8535906 155.43513045 119.60251617 155.43938255 C118.71147151 155.43997774 117.82042685 155.44057293 116.90238084 155.44118616 C115.09196542 155.44239796 113.28154999 155.4436121 111.47113457 155.44482853 C94.50614509 155.45569616 77.5411755 155.45354542 60.5761849 155.44744369 C45.07628975 155.4422768 29.57645749 155.45352534 14.07657477 155.47254191 C-1.85925023 155.49194258 -17.79504552 155.5001723 -33.73088241 155.49641865 C-42.66934641 155.49450979 -51.60775691 155.49696329 -60.54621124 155.51113319 C-68.1568418 155.52307651 -75.76738594 155.52441901 -83.37801775 155.51234303 C-87.25623813 155.50647462 -91.13430066 155.50529797 -95.0125103 155.51734543 C-98.57192445 155.52827343 -102.1310503 155.52501986 -105.69045135 155.51108374 C-107.56851653 155.5072233 -109.44659485 155.51792723 -111.32462907 155.52938062 C-128.2514418 155.42301589 -143.62804932 151.34551602 -156.5390625 140.1328125 C-165.66941131 130.63541449 -170.31631278 120.16892493 -170.609375 106.96484375 C-170.05115733 93.22283818 -164.26728741 82.49227847 -154.5390625 73.0703125 C-147.15048606 66.73366898 -138.26533634 62.11038964 -128.5390625 61.1328125 C-128.86132812 60.05386719 -129.18359375 58.97492188 -129.515625 57.86328125 C-133.37223275 42.33787535 -131.53510576 24.87842298 -123.8515625 10.9453125 C-117.67404342 1.43193312 -110.49243301 -5.43807632 -100.5390625 -10.8671875 C-99.71019531 -11.32867187 -98.88132812 -11.79015625 -98.02734375 -12.265625 C-66.66797122 -28.11339366 -27.30061234 -20.0764503 0 0 Z " fill="#5F55F0" transform="translate(201.5390625,30.8671875)"/>
<path d="M0 0 C0.969375 0.144375 1.93875 0.28875 2.9375 0.4375 C13.66807776 16.53336665 4.9375 39.09267583 4.9375 58.4375 C73.5775 58.4375 142.2175 58.4375 212.9375 58.4375 C212.9375 40.2875 212.9375 22.1375 212.9375 3.4375 C213.5975 2.4475 214.2575 1.4575 214.9375 0.4375 C217.875 0 217.875 0 220.9375 0.4375 C223.06574962 2.58999681 223.86900607 3.95695612 224.29826355 6.96856689 C224.29160172 7.91898865 224.28493988 8.8694104 224.27807617 9.84863281 C224.27784958 10.92945129 224.27762299 12.01026978 224.27738953 13.12384033 C224.26190567 14.28437927 224.24642181 15.44491821 224.23046875 16.640625 C224.22622391 17.83355164 224.22197906 19.02647827 224.21760559 20.2555542 C224.20081023 24.06643219 224.16315518 27.87678178 224.125 31.6875 C224.10995433 34.2708257 224.09626572 36.85415968 224.08398438 39.4375 C224.05090381 45.77101368 224.00069524 52.10421909 223.9375 58.4375 C224.54103145 58.43196924 225.14456289 58.42643848 225.76638317 58.42074013 C240.45555073 58.28820078 255.14468294 58.18892981 269.83430767 58.12662697 C276.93817819 58.09569624 284.04164944 58.05353186 291.14526367 57.98486328 C297.99875999 57.91864413 304.85184093 57.88380848 311.70563698 57.86823654 C314.32240141 57.8571373 316.93914274 57.83546326 319.55573082 57.80311966 C323.2169365 57.75965728 326.87642028 57.7535621 330.5378418 57.75634766 C331.62325256 57.734776 332.70866333 57.71320435 333.82696533 57.690979 C340.95638406 57.74979744 340.95638406 57.74979744 343.7298069 59.69379807 C346.12178183 62.39422588 346.93807955 64.44117049 347.5 68 C346.85179589 71.96124737 345.74950626 73.62549374 342.9375 76.4375 C339.94571247 77.93339377 336.88049016 77.57994777 333.59946728 77.57451439 C332.44593768 77.57849213 332.44593768 77.57849213 331.26910445 77.58255023 C328.66508324 77.59027381 326.06110895 77.59080356 323.45707703 77.59140015 C321.58212928 77.59541275 319.70718241 77.59985063 317.83223659 77.6046797 C312.6586929 77.61667345 307.48515855 77.62230011 302.31160367 77.62686086 C296.74025108 77.63280627 291.16890972 77.64441866 285.5975647 77.65515137 C272.13293016 77.67969831 258.6682919 77.69430514 245.20364186 77.70721143 C241.40315228 77.71092146 237.60266307 77.71489483 233.80217385 77.7189641 C210.22091905 77.74419681 186.63966343 77.7662744 163.05839825 77.77869225 C157.59370102 77.78161368 152.12900382 77.78458118 146.66430664 77.78759766 C145.98537278 77.78796857 145.30643893 77.78833947 144.60693131 77.78872162 C122.58688389 77.80088118 100.56691633 77.83183157 78.54690643 77.87351918 C55.27680097 77.91749324 32.00674976 77.94322306 8.73659641 77.94861281 C-3.95260252 77.95203226 -16.64167544 77.96385037 -29.33083534 77.99671555 C-40.13435456 78.02465043 -50.93772197 78.03574426 -61.74127451 78.02452008 C-67.25682991 78.01931676 -72.77206706 78.02232857 -78.28757668 78.04698563 C-83.33280825 78.06935282 -88.37749067 78.06883635 -93.42273106 78.04978175 C-95.25182695 78.04696408 -97.08095909 78.05267744 -98.90999631 78.06759469 C-101.38965501 78.08658823 -103.86733268 78.0749903 -106.34694386 78.05553246 C-107.06321427 78.06838168 -107.77948468 78.0812309 -108.51746026 78.09446949 C-112.35828029 78.02788412 -113.95326951 77.52560476 -116.98222226 75.08246672 C-119.41505259 71.98924742 -120.0625 70.36481677 -120.0625 66.4375 C-118.53376129 62.46277937 -117.63469503 60.81896335 -114.0625 58.4375 C-112.00668049 58.19140434 -112.00668049 58.19140434 -109.60163879 58.19699097 C-108.23235985 58.19286697 -108.23235985 58.19286697 -106.8354187 58.18865967 C-105.83632477 58.19585022 -104.83723083 58.20304077 -103.80786133 58.21044922 C-102.75403763 58.21015717 -101.70021393 58.20986511 -100.61445618 58.20956421 C-97.12439801 58.21095972 -93.63455221 58.22653153 -90.14453125 58.2421875 C-87.72743344 58.24591684 -85.31033412 58.24876418 -82.89323425 58.25076294 C-76.5260502 58.25840562 -70.15895714 58.27805963 -63.79180908 58.3001709 C-57.29676545 58.32061562 -50.80170715 58.32976172 -44.30664062 58.33984375 C-31.55855489 58.36130486 -18.81053228 58.39506502 -6.0625 58.4375 C-6.07249275 57.4360495 -6.07249275 57.4360495 -6.08268738 56.41436768 C-6.14900891 49.47160656 -6.19428752 42.52893529 -6.22729492 35.5859375 C-6.24239015 32.99410345 -6.26286824 30.40229497 -6.28881836 27.81054688 C-6.32516827 24.08717541 -6.3422192 20.3641414 -6.35546875 16.640625 C-6.37095261 15.48008606 -6.38643646 14.31954712 -6.40238953 13.12384033 C-6.40261612 12.04302185 -6.40284271 10.96220337 -6.40307617 9.84863281 C-6.41306892 8.42300018 -6.41306892 8.42300018 -6.42326355 6.96856689 C-5.80291943 2.6163188 -4.37894991 0.62556427 0 0 Z " fill="#9B5BFE" transform="translate(121.0625,189.5625)"/>
<path d="M0 0 C6.6 0 13.2 0 20 0 C21.08796875 2.12695312 22.1759375 4.25390625 23.296875 6.4453125 C33.08470575 25.57221646 33.08470575 25.57221646 43.25 44.5 C49.67779198 56.2377071 55.82596473 68.12685525 62 80 C62.33 53.6 62.66 27.2 63 0 C67.62 0 72.24 0 77 0 C77 33.33 77 66.66 77 101 C70.4 101 63.8 101 57 101 C56.12859375 99.30617188 55.2571875 97.61234375 54.359375 95.8671875 C48.22296819 83.96922227 42.02692683 72.11974434 35.56396484 60.39477539 C30.7327396 51.5929121 26.12728149 42.67624431 21.54296875 33.74414062 C20.97964844 32.64908203 20.41632812 31.55402344 19.8359375 30.42578125 C19.33626465 29.45036377 18.8365918 28.47494629 18.32177734 27.4699707 C16.97545683 24.85865411 16.97545683 24.85865411 15 22 C14.67 48.07 14.34 74.14 14 101 C9.38 101 4.76 101 0 101 C0 67.67 0 34.34 0 0 Z " fill="#FEFEFE" transform="translate(571,69)"/>
<path d="M0 0 C4.29 0 8.58 0 13 0 C13.33 12.21 13.66 24.42 14 37 C16.31 35.02 18.62 33.04 21 31 C28.58769597 26.76840032 37.50571308 25.95812531 45.875 28.21484375 C53.84501004 31.15964525 59.70552656 36.33043649 63.4453125 43.94140625 C69.30071864 57.5761377 70.39265832 73.06941574 65.2578125 87.19921875 C61.3787098 95.83684805 56.15121628 102.48437654 47.2109375 106.140625 C38.64220328 108.43396019 28.88724426 108.15872879 21 104 C18.17291982 102.01979847 15.57452768 100.14905535 14 97 C13.67 99.64 13.34 102.28 13 105 C8.71 105 4.42 105 0 105 C0 70.35 0 35.7 0 0 Z M18.46875 45.984375 C12.4389505 55.87044163 11.75055142 67.11070876 14.25 78.1875 C16.32539962 85.79408094 19.70495643 90.40986406 26 95 C30.32488529 96.87411696 35.71666272 96.76111243 40.15625 95.28125 C46.44151078 92.37314426 49.47196206 88.62096116 52.25 82.3125 C55.62723771 72.42201813 55.91816831 59.56159701 51.26953125 50.05078125 C47.96792081 44.71741055 45.12974674 40.94954963 39 39 C30.58970319 37.80571271 23.81685916 39.05366211 18.46875 45.984375 Z " fill="#FEFEFE" transform="translate(754,65)"/>
<path d="M0 0 C0 4.95 0 9.9 0 15 C-1.155 14.5875 -2.31 14.175 -3.5 13.75 C-22.54776996 7.4561975 -22.54776996 7.4561975 -42.0625 10.3125 C-46.14450769 12.65748314 -48.49713959 14.49141877 -50 19 C-50.23295726 21.11650397 -50.23295726 21.11650397 -50.25 23.375 C-50.27578125 24.12523438 -50.3015625 24.87546875 -50.328125 25.6484375 C-49.89754619 28.73425232 -48.86814421 30.51744391 -47 33 C-40.6994643 36.81546385 -32.5501935 37.82403573 -25.4375 39.4375 C-18.08759628 41.10992162 -11.40341222 42.860701 -5 47 C-4.071875 47.556875 -3.14375 48.11375 -2.1875 48.6875 C3.83005097 55.04891103 6.29886997 63.19154635 6.15234375 71.8203125 C5.56581032 80.21225233 3.07411852 86.27594935 -3.125 92.125 C-14.52731396 101.48767591 -30.0770575 100.95586811 -44 100 C-51.28749966 98.98701856 -58.40669885 97.29665057 -65 94 C-65 89.05 -65 84.1 -65 79 C-64.01 79.40992188 -63.02 79.81984375 -62 80.2421875 C-60.66678219 80.78674125 -59.33344224 81.33099605 -58 81.875 C-57.35160156 82.14441406 -56.70320312 82.41382813 -56.03515625 82.69140625 C-44.55971239 87.34975475 -31.17579374 89.65017162 -19.1875 85.375 C-15.08026489 83.39123338 -12.93838176 81.21387339 -11 77 C-9.49696838 72.06146752 -9.94170211 67.68942397 -12 63 C-17.67852419 56.24716042 -26.79127604 54.97669565 -35.05078125 53.0390625 C-46.78514525 50.28529124 -57.01122269 47.57485547 -64 37 C-67.33192064 29.32209592 -67.10115147 19.91194986 -64.09375 12.12890625 C-60.11604581 4.38658916 -54.0866982 -0.07980343 -46 -3 C-30.60224877 -7.20138641 -15.0329735 -4.46926239 0 0 Z " fill="#B7B7B7" transform="translate(1017,72)"/>
<path d="M0 0 C9.40316933 9.88014169 9.88143673 20.36866699 9.81640625 33.41796875 C9.8149913 34.49567032 9.81357635 35.57337189 9.81211853 36.68373108 C9.80654611 40.10689129 9.79399868 43.52998475 9.78125 46.953125 C9.77623144 49.28190009 9.77166915 51.61067622 9.76757812 53.93945312 C9.7565857 59.63153592 9.73934011 65.32356916 9.71875 71.015625 C5.09875 71.015625 0.47875 71.015625 -4.28125 71.015625 C-4.77625 67.550625 -4.77625 67.550625 -5.28125 64.015625 C-5.69375 64.41394531 -6.10625 64.81226563 -6.53125 65.22265625 C-14.70999105 72.72592092 -22.41620049 73.72863571 -33.203125 73.359375 C-40.04784987 72.92181268 -44.89880612 70.78139587 -49.65625 65.828125 C-53.8335438 60.39764306 -55.87293281 54.00273431 -55.5703125 47.125 C-54.69920272 40.76825296 -53.10799769 34.46131366 -48.28125 30.015625 C-38.29394289 23.14307162 -28.56772317 22.72013618 -16.71875 22.890625 C-15.51927734 22.89964844 -14.31980469 22.90867187 -13.08398438 22.91796875 C-10.14952691 22.94135088 -7.21549766 22.9741222 -4.28125 23.015625 C-4.55964871 21.57368179 -4.84966624 20.13397879 -5.14453125 18.6953125 C-5.30477783 17.89335449 -5.46502441 17.09139648 -5.63012695 16.26513672 C-6.97586684 11.61585013 -10.27950675 9.6337219 -14.21875 7.203125 C-24.51476517 3.31699346 -35.41259084 6.51520316 -45.28125 10.015625 C-46.60125 10.345625 -47.92125 10.675625 -49.28125 11.015625 C-49.28125 6.725625 -49.28125 2.435625 -49.28125 -1.984375 C-33.80931161 -6.65637887 -13.64984735 -11.87349735 0 0 Z M-38.71875 39.078125 C-41.71278355 42.7907266 -41.62176713 45.82403783 -41.5546875 50.47265625 C-41.14442602 54.28808801 -39.90787245 56.25430397 -37.28125 59.015625 C-32.07860773 62.0760028 -27.18590533 63.02373689 -21.28125 62.015625 C-14.40974201 59.71146807 -9.61583471 56.51005635 -6.28125 50.015625 C-4.48091709 46.15776876 -4.20076809 43.00764956 -4.23828125 38.81640625 C-4.24448486 37.91704346 -4.25068848 37.01768066 -4.25708008 36.09106445 C-4.26505615 35.40616943 -4.27303223 34.72127441 -4.28125 34.015625 C-8.11443619 33.92772856 -11.94735928 33.87493413 -15.78125 33.828125 C-16.85890625 33.80298828 -17.9365625 33.77785156 -19.046875 33.75195312 C-26.53944904 33.68342348 -32.76860641 34.04338812 -38.71875 39.078125 Z " fill="#B7B7B7" transform="translate(1140.28125,98.984375)"/>
<path d="M0 0 C9.56858529 10.45599441 9.625 21.23808062 9.625 35.25 C-9.185 35.25 -27.995 35.25 -47.375 35.25 C-43.37669879 48.854387 -43.37669879 48.854387 -33.375 57.25 C-20.19853098 62.41724275 -6.07641504 57.77084264 6.625 53.25 C6.625 57.54 6.625 61.83 6.625 66.25 C-8.41003576 71.42873454 -25.56024428 74.70399281 -40.8984375 68.50390625 C-49.89350487 63.94962135 -55.45603188 57.44498955 -59.1875 48.0625 C-63.13380091 35.39279709 -62.26741816 22.18324014 -56.8125 10.125 C-52.25149225 1.53307741 -45.95663306 -3.8809346 -36.76953125 -7.0703125 C-24.21778703 -10.63312407 -9.75259344 -9.15880085 0 0 Z M-41.25 10.125 C-45.14946718 14.9837894 -46.375 17.91078905 -46.375 24.25 C-32.515 24.25 -18.655 24.25 -4.375 24.25 C-4.375 17.32480173 -4.42525138 14.23047517 -9.25 9.35546875 C-15.01397411 4.15305829 -18.77165355 2.92425539 -26.52734375 3.046875 C-32.98375061 3.50741431 -36.86098404 5.33862457 -41.25 10.125 Z " fill="#FEFEFE" transform="translate(929.375,100.75)"/>
<path d="M0 0 C7.78530455 7.28803959 11.23906273 17.55346891 11.8125 28 C11.78698268 40.93728058 10.46008319 52.78724338 1.8125 63 C-6.33560332 70.87306186 -14.98938794 72.46523328 -25.94677734 72.3515625 C-35.15611526 72.0579728 -42.55058657 69.65091536 -49.1875 63 C-56.28784824 53.69886509 -58.75266069 43.66917358 -58.625 32.125 C-58.61742676 31.16190918 -58.60985352 30.19881836 -58.60205078 29.20654297 C-58.35387589 18.46980876 -56.03884782 8.76468836 -48.1875 1 C-33.98495291 -10.42323357 -14.55517947 -11.25966714 0 0 Z M-38.4375 10.125 C-45.00052181 20.90710726 -46.30626088 32.94121624 -43.421875 45.2734375 C-40.94110746 51.82975172 -37.57814953 56.80467523 -31.1875 60 C-26.28046857 61.79924486 -21.46267767 61.41773062 -16.5625 59.8125 C-10.78203854 56.70817811 -6.46661821 52.21293869 -4.1875 46 C-1.61902506 34.65919528 -1.17515206 23.10984836 -6.984375 12.68359375 C-9.83397067 8.6960102 -13.68393484 5.90150529 -18.1875 4 C-26.19479948 2.82886436 -32.55753138 4.5716963 -38.4375 10.125 Z " fill="#B8B8B8" transform="translate(1310.1875,100)"/>
<path d="M0 0 C4.29 0 8.58 0 13 0 C13.01981934 1.40169434 13.03963867 2.80338867 13.06005859 4.24755859 C13.13655523 9.48470993 13.22520255 14.72159928 13.31738281 19.95849609 C13.35549144 22.21820882 13.39037475 24.47797846 13.421875 26.73779297 C13.46792123 29.99988042 13.52584814 33.26158204 13.5859375 36.5234375 C13.59748871 37.52176605 13.60903992 38.5200946 13.62094116 39.54867554 C13.72537203 51.12160907 13.72537203 51.12160907 18.1875 61.5 C22.00251166 64.89112147 25.0924093 65.96391288 30.203125 66.02734375 C35.7539345 65.65917781 39.49797377 64.26617589 44 61 C50.31111735 53.66545821 50.30280675 44.3023752 50.4140625 35.05859375 C50.43342865 34.05031021 50.4527948 33.04202667 50.4727478 32.00318909 C50.53204433 28.81470938 50.57872769 25.62619259 50.625 22.4375 C50.6632258 20.26235493 50.70228014 18.08722425 50.7421875 15.91210938 C50.83770431 10.60819121 50.92191767 5.30420231 51 0 C55.29 0 59.58 0 64 0 C64 25.08 64 50.16 64 76 C59.71 76 55.42 76 51 76 C50.505 72.04 50.505 72.04 50 68 C49.50371094 68.47050781 49.00742187 68.94101563 48.49609375 69.42578125 C47.47708984 70.35970703 47.47708984 70.35970703 46.4375 71.3125 C45.77621094 71.92738281 45.11492188 72.54226562 44.43359375 73.17578125 C39.03863714 77.2198338 33.77383164 78.53921063 27.125 78.4375 C26.42391113 78.42920166 25.72282227 78.42090332 25.00048828 78.41235352 C17.31933625 78.16259608 11.91494833 76.36094034 6.625 70.75 C1.60197426 64.26598339 -0.1324654 56.56272632 -0.11352539 48.4753418 C-0.11344986 47.39459885 -0.11337433 46.3138559 -0.11329651 45.20036316 C-0.10813522 44.0449855 -0.10297394 42.88960785 -0.09765625 41.69921875 C-0.0962413 40.50770706 -0.09482635 39.31619537 -0.09336853 38.08857727 C-0.08777728 34.28819249 -0.07522632 30.48786693 -0.0625 26.6875 C-0.05748387 24.10872481 -0.05292116 21.5299487 -0.04882812 18.95117188 C-0.0378107 12.63409182 -0.02055201 6.31705594 0 0 Z " fill="#FEFEFE" transform="translate(669,94)"/>
<path d="M0 0 C6.32796175 6.04032712 9.1742385 13.6690584 9.45410156 22.36767578 C9.45347653 24.72698282 9.43137238 27.08635728 9.390625 29.4453125 C9.38496521 30.69633759 9.37930542 31.94736267 9.37347412 33.23629761 C9.35500183 36.52778708 9.31920329 39.81846053 9.2746582 43.10968018 C9.23339813 46.48187384 9.21539825 49.85418801 9.1953125 53.2265625 C9.15140601 59.81806277 9.08246044 66.40887388 9 73 C4.71 73 0.42 73 -4 73 C-4.01458252 71.46666016 -4.02916504 69.93332031 -4.04418945 68.35351562 C-4.10233578 62.64299669 -4.17956837 56.93286531 -4.26245117 51.22265625 C-4.29562363 48.75527251 -4.32367926 46.28781429 -4.34643555 43.8203125 C-4.38012213 40.26530334 -4.43244702 36.71097202 -4.48828125 33.15625 C-4.49467117 32.06010376 -4.5010611 30.96395752 -4.50764465 29.83459473 C-4.64662808 22.52896678 -4.99688881 15.92803341 -10.5 10.5625 C-15.44974344 7.46891035 -20.48540491 7.28394231 -26.08984375 8.42578125 C-31.51431255 10.12287993 -35.04384891 13.15153562 -38 18 C-40.46767678 23.68127538 -40.34652232 29.2188282 -40.4140625 35.3046875 C-40.43342865 36.38380402 -40.4527948 37.46292053 -40.4727478 38.57473755 C-40.53233942 42.00807895 -40.57884761 45.44145424 -40.625 48.875 C-40.66319853 51.20834764 -40.70225135 53.54168146 -40.7421875 55.875 C-40.83802434 61.58322059 -40.92213102 67.29150717 -41 73 C-45.29 73 -49.58 73 -54 73 C-54 47.92 -54 22.84 -54 -3 C-49.71 -3 -45.42 -3 -41 -3 C-40.67 -0.36 -40.34 2.28 -40 5 C-39.57589844 4.60167969 -39.15179687 4.20335938 -38.71484375 3.79296875 C-28.22849495 -5.67931555 -12.08965904 -8.76429828 0 0 Z " fill="#B7B7B7" transform="translate(1392,97)"/>
<path d="M0 0 C4.29 0 8.58 0 13 0 C13 6.93 13 13.86 13 21 C21.58 21 30.16 21 39 21 C39 24.63 39 28.26 39 32 C30.42 32 21.84 32 13 32 C13.09715179 38.13845904 13.20001903 44.27627705 13.31738281 50.41430664 C13.35556383 52.50051104 13.39043533 54.58677882 13.421875 56.6730957 C13.46776227 59.679429 13.52571733 62.68532999 13.5859375 65.69140625 C13.59748871 66.61772354 13.60903992 67.54404083 13.62094116 68.49842834 C13.73740776 73.65881953 14.02639179 78.19429943 16 83 C18.69506575 85.06669365 21.21011983 85.27878864 24.546875 85.4140625 C25.39121094 85.45273438 26.23554687 85.49140625 27.10546875 85.53125 C27.97816406 85.5621875 28.85085938 85.593125 29.75 85.625 C30.63816406 85.66367188 31.52632812 85.70234375 32.44140625 85.7421875 C34.62727167 85.83620322 36.81360692 85.91918002 39 86 C39 89.63 39 93.26 39 97 C35.16623358 97.08137712 31.33421671 97.14068689 27.5 97.1875 C26.42234375 97.21263672 25.3446875 97.23777344 24.234375 97.26367188 C16.31941123 97.33606484 10.09627668 96.96165595 4.125 91.25 C-0.41862329 84.30092908 -0.27570315 77.66342667 -0.1953125 69.59765625 C-0.1924826 68.51995468 -0.18965271 67.44225311 -0.18673706 66.33189392 C-0.17559193 62.90864701 -0.15049756 59.48566709 -0.125 56.0625 C-0.11496289 53.73372775 -0.10583832 51.40495138 -0.09765625 49.07617188 C-0.07567111 43.38401259 -0.04118018 37.69205148 0 32 C-2.97 32 -5.94 32 -9 32 C-9 28.37 -9 24.74 -9 21 C-6.03 21 -3.06 21 0 21 C0 14.07 0 7.14 0 0 Z " fill="#B7B7B7" transform="translate(1171,73)"/>
<path d="M0 0 C4.29 0 8.58 0 13 0 C13 6.93 13 13.86 13 21 C21.58 21 30.16 21 39 21 C39 24.63 39 28.26 39 32 C30.42 32 21.84 32 13 32 C13.09733443 37.81701272 13.20031247 43.63337836 13.31738281 49.44995117 C13.35548235 51.42547677 13.39036713 53.40106726 13.421875 55.37670898 C13.46794159 58.22923858 13.52586417 61.08132875 13.5859375 63.93359375 C13.59748871 64.80584091 13.60903992 65.67808807 13.62094116 66.57676697 C13.75194268 74.99096135 13.75194268 74.99096135 16 83 C18.87360511 84.82247644 21.17170994 85.27723148 24.546875 85.4140625 C25.39121094 85.45273438 26.23554687 85.49140625 27.10546875 85.53125 C27.97816406 85.5621875 28.85085938 85.593125 29.75 85.625 C30.63816406 85.66367188 31.52632812 85.70234375 32.44140625 85.7421875 C34.62727167 85.83620322 36.81360692 85.91918002 39 86 C39 89.63 39 93.26 39 97 C35.18672128 97.10869203 31.37659008 97.18765644 27.5625 97.25 C26.49322266 97.28351563 25.42394531 97.31703125 24.32226562 97.3515625 C16.22612859 97.45059782 9.65981514 96.3782909 3.5625 90.75 C-0.39159187 83.79079831 -0.27497568 76.50289144 -0.1953125 68.71875 C-0.1924826 67.66465942 -0.18965271 66.61056885 -0.18673706 65.52453613 C-0.17560986 62.1829049 -0.15051904 58.84154919 -0.125 55.5 C-0.11496056 53.22396222 -0.1058364 50.94792022 -0.09765625 48.671875 C-0.07569495 43.1144784 -0.04121675 37.55728579 0 32 C-2.97 32 -5.94 32 -9 32 C-9 28.37 -9 24.74 -9 21 C-6.03 21 -3.06 21 0 21 C0 14.07 0 7.14 0 0 Z " fill="#B7B7B7" transform="translate(1039,73)"/>
<path d="M0 0 C4.62 0 9.24 0 14 0 C14 34.65 14 69.3 14 105 C9.38 105 4.76 105 0 105 C0 70.35 0 35.7 0 0 Z " fill="#FEFEFE" transform="translate(838,65)"/>
<path d="M0 0 C4.29 0 8.58 0 13 0 C13 25.08 13 50.16 13 76 C8.71 76 4.42 76 0 76 C0 50.92 0 25.84 0 0 Z " fill="#B7B7B7" transform="translate(1222,94)"/>
<path d="M0 0 C3.89584681 3.45060718 5.0187449 7.3624524 5.5625 12.4375 C5.12133162 16.55507152 4.26041774 19.34444259 2.1875 22.9375 C-2.09741605 25.95641813 -5.63779946 26.50201279 -10.8125 25.9375 C-14.52189502 24.25141136 -16.70495539 22.40666051 -18.8125 18.9375 C-19.58345603 13.96483358 -19.99265726 8.42442143 -17.79296875 3.7890625 C-13.22934193 -1.8637683 -6.49562482 -2.45390271 0 0 Z M-12.125 4.4375 C-14.39093664 7.79444317 -15.02664429 10.95288654 -14.8125 14.9375 C-13.2805636 19.27563936 -13.2805636 19.27563936 -9.8125 21.9375 C-6.89711971 22.43792146 -6.89711971 22.43792146 -3.8125 21.9375 C-1.18018049 19.79008145 -0.02687536 18.1471895 0.5703125 14.77734375 C0.76918486 10.80652561 0.44789029 8.42823554 -1.4375 4.875 C-3.70459196 2.71007109 -3.70459196 2.71007109 -6.8125 2.375 C-9.83723833 2.74532451 -9.83723833 2.74532451 -12.125 4.4375 Z " fill="#8A8A8A" transform="translate(1128.8125,248.0625)"/>
<path d="M0 0 C3.86419687 3.00548645 5.35272637 5.22346629 6.125 10.0625 C6.57443852 15.51868359 5.20565953 19.30542559 1.75 23.625 C-1.79025232 26.28018924 -5.51453174 26.04210126 -9.75 25.75 C-13.40189234 24.09004894 -15.79485154 22.26926723 -17.75 18.75 C-19.09422095 13.37311619 -18.8326294 8.84579535 -16.75 3.75 C-12.42557467 -1.69040606 -6.38962737 -2.90437608 0 0 Z M-11.0625 4.625 C-14.06062644 8.40041848 -14.07594148 10.94236319 -13.75 15.75 C-12.00271222 19.47803465 -12.00271222 19.47803465 -8.75 21.75 C-4.57683426 22.17842753 -4.57683426 22.17842753 -0.9375 20.4375 C1.67226596 16.72888521 1.55231212 13.1335257 1.25 8.75 C0.09360194 6.43720389 -0.92409828 4.57590172 -2.75 2.75 C-6.45245777 2.3386158 -8.11456705 2.23478409 -11.0625 4.625 Z " fill="#898989" transform="translate(894.75,248.25)"/>
<path d="M0 0 C10.44444444 0 10.44444444 0 15 2 C17.60704898 4.60704898 17.23905333 6.47338241 17.265625 10.02734375 C17 12 17 12 15 15 C15.34933594 15.54269531 15.69867187 16.08539063 16.05859375 16.64453125 C16.51363281 17.35996094 16.96867187 18.07539063 17.4375 18.8125 C18.11619141 19.87404297 18.11619141 19.87404297 18.80859375 20.95703125 C20 23 20 23 21 26 C18.6875 26.27734375 18.6875 26.27734375 16 26 C14.375 24.06640625 14.375 24.06640625 13 21.5625 C11.03460019 17.84032238 11.03460019 17.84032238 7.3125 16.21484375 C6.549375 16.14394531 5.78625 16.07304687 5 16 C5 19.3 5 22.6 5 26 C3.35 26 1.7 26 0 26 C0 17.42 0 8.84 0 0 Z M5 4 C5 6.64 5 9.28 5 12 C6.98 12 8.96 12 11 12 C11.66 10.35 12.32 8.7 13 7 C11.81476003 5.39585785 11.81476003 5.39585785 10 4 C7.37429296 3.74930087 7.37429296 3.74930087 5 4 Z " fill="#8F8F8F" transform="translate(1185,247)"/>
<path d="M0 0 C10.44444444 0 10.44444444 0 15 2 C17.60704898 4.60704898 17.23905333 6.47338241 17.265625 10.02734375 C17 12 17 12 15 15 C15.3609375 15.62648438 15.721875 16.25296875 16.09375 16.8984375 C16.78984375 18.12433594 16.78984375 18.12433594 17.5 19.375 C17.9640625 20.18710937 18.428125 20.99921875 18.90625 21.8359375 C20 24 20 24 20 26 C18.35 26 16.7 26 15 26 C14.70867188 25.36191406 14.41734375 24.72382813 14.1171875 24.06640625 C12.8742048 21.56089709 11.65053278 19.26041957 10 17 C6.84050318 15.78717711 6.84050318 15.78717711 4 16 C4 19.3 4 22.6 4 26 C2.68 26 1.36 26 0 26 C0 17.42 0 8.84 0 0 Z M4 4 C4 6.64 4 9.28 4 12 C6.33294775 12.04241723 8.66702567 12.04092937 11 12 C12.27003323 10.94689723 12.27003323 10.94689723 12.1875 8.5625 C12.26839983 5.83265325 12.26839983 5.83265325 10 4 C6.91652174 3.83318891 6.91652174 3.83318891 4 4 Z " fill="#888888" transform="translate(599,247)"/>
<path d="M0 0 C1.32 0 2.64 0 4 0 C4.33 7.26 4.66 14.52 5 22 C7.64 22 10.28 22 13 22 C14.61780157 20.38219843 14.22272147 18.54364482 14.31640625 16.30859375 C14.35830078 15.36435547 14.40019531 14.42011719 14.44335938 13.44726562 C14.50233398 11.95743164 14.50233398 11.95743164 14.5625 10.4375 C14.60568359 9.44041016 14.64886719 8.44332031 14.69335938 7.41601562 C14.79980298 4.9441585 14.90181928 2.4721969 15 0 C16.65 0 18.3 0 20 0 C20.0875127 3.22899426 20.14056146 6.45768116 20.1875 9.6875 C20.21263672 10.59951172 20.23777344 11.51152344 20.26367188 12.45117188 C20.35728419 21.03230051 20.35728419 21.03230051 17 25 C13.29702456 27.46865029 10.29548969 27.56100937 6 27 C1.43055556 24.86111111 1.43055556 24.86111111 0 22 C-0.08426094 20.3325394 -0.10725143 18.66174813 -0.09765625 16.9921875 C-0.09443359 16.00605469 -0.09121094 15.01992188 -0.08789062 14.00390625 C-0.07951172 12.97136719 -0.07113281 11.93882812 -0.0625 10.875 C-0.05798828 9.83472656 -0.05347656 8.79445312 -0.04882812 7.72265625 C-0.03701952 5.14838038 -0.02055075 2.57421854 0 0 Z " fill="#878787" transform="translate(1149,247)"/>
<path d="M0 0 C1.65 0 3.3 0 5 0 C8.68423013 8.55995596 11.94143568 17.2017469 15 26 C13.35 26 11.7 26 10 26 C9.34 24.02 8.68 22.04 8 20 C4.37 20 0.74 20 -3 20 C-3.33 21.98 -3.66 23.96 -4 26 C-5.65 26 -7.3 26 -9 26 C-6.56696874 17.12157015 -3.29163506 8.58594775 0 0 Z M2 7 C1.01 9.97 0.02 12.94 -1 16 C1.31 16 3.62 16 6 16 C5.01 13.03 4.02 10.06 3 7 C2.67 7 2.34 7 2 7 Z " fill="#8A8A8A" transform="translate(957,247)"/>
<path d="M0 0 C2.40893555 0.12133789 2.40893555 0.12133789 5 1 C6.39379883 3.19311523 6.39379883 3.19311523 7.45703125 6.05859375 C8.04194336 7.59676758 8.04194336 7.59676758 8.63867188 9.16601562 C9.2197168 10.78540039 9.2197168 10.78540039 9.8125 12.4375 C10.21919922 13.51322266 10.62589844 14.58894531 11.04492188 15.69726562 C14 23.60892857 14 23.60892857 14 26 C12.35 26 10.7 26 9 26 C8.34 24.35 7.68 22.7 7 21 C3.7 21 0.4 21 -3 21 C-3.99 23.475 -3.99 23.475 -5 26 C-6.65 26 -8.3 26 -10 26 C-8.3422142 19.81965819 -6.2481251 13.87314971 -3.875 7.9375 C-3.60929199 7.27032959 -3.34358398 6.60315918 -3.06982422 5.91577148 C-1.13128939 1.13128939 -1.13128939 1.13128939 0 0 Z M1 7 C0.01 9.97 -0.98 12.94 -2 16 C0.31 16 2.62 16 5 16 C4.50351065 11.53159589 4.31012244 10.31012244 1 7 Z " fill="#898989" transform="translate(694,247)"/>
<path d="M0 0 C0.99 0.33 1.98 0.66 3 1 C3 2.65 3 4.3 3 6 C2.484375 5.835 1.96875 5.67 1.4375 5.5 C-1.73363876 4.84951 -4.77218334 4.9379266 -8 5 C-8.33 6.65 -8.66 8.3 -9 10 C-7.96939453 10.16435547 -7.96939453 10.16435547 -6.91796875 10.33203125 C-6.01691406 10.49058594 -5.11585937 10.64914062 -4.1875 10.8125 C-3.29417969 10.96332031 -2.40085937 11.11414063 -1.48046875 11.26953125 C1.24997884 12.07361581 2.35230713 12.69752364 4 15 C4.55595912 17.70348746 4.43172844 20.2789747 4 23 C2.45661909 25.17476401 1.36334727 25.81832637 -1 27 C-2.45579587 27.09555417 -3.9160796 27.12984691 -5.375 27.125 C-6.14585938 27.12757813 -6.91671875 27.13015625 -7.7109375 27.1328125 C-9.9328189 27.00389788 -11.86618508 26.61383717 -14 26 C-14 24.35 -14 22.7 -14 21 C-13.505 21.165 -13.01 21.33 -12.5 21.5 C-8.96555911 22.20688818 -5.60309299 22.06005155 -2 22 C-1.67 20.68 -1.34 19.36 -1 18 C-4.29521518 15.80318988 -7.28004402 14.90043997 -11.0390625 13.78125 C-13 13 -13 13 -14 11 C-14.45404871 6.91356163 -14.66920478 4.84190279 -12.0625 1.5625 C-7.96996242 -0.52552938 -4.51379517 -0.5156208 0 0 Z " fill="#898989" transform="translate(1233,247)"/>
<path d="M0 0 C5.61 0 11.22 0 17 0 C17 1.32 17 2.64 17 4 C12.71 4 8.42 4 4 4 C4 6.31 4 8.62 4 11 C7.96 11 11.92 11 16 11 C16 12.32 16 13.64 16 15 C12.04 15 8.08 15 4 15 C4 17.64 4 20.28 4 23 C8.29 23 12.58 23 17 23 C17 23.99 17 24.98 17 26 C11.39 26 5.78 26 0 26 C0 17.42 0 8.84 0 0 Z " fill="#878787" transform="translate(751,247)"/>
<path d="M0 0 C10.44444444 0 10.44444444 0 15 2 C17.41486943 4.41486943 17.2961925 5.12707789 17.3125 8.4375 C17.32925781 9.21996094 17.34601562 10.00242187 17.36328125 10.80859375 C17 13 17 13 15.7734375 14.7734375 C13.47620832 16.36227001 12.07837789 16.30775556 9.3125 16.1875 C7.1778125 16.0946875 7.1778125 16.0946875 5 16 C5 19.3 5 22.6 5 26 C3.35 26 1.7 26 0 26 C0 17.42 0 8.84 0 0 Z M5 4 C5 6.97 5 9.94 5 13 C8.465 12.505 8.465 12.505 12 12 C12.76956136 9.65466049 12.76956136 9.65466049 13 7 C11.98029682 5.06345052 11.98029682 5.06345052 10 4 C7.37429296 3.74930087 7.37429296 3.74930087 5 4 Z " fill="#888888" transform="translate(567,247)"/>
<path d="M0 0 C2.296875 0 2.296875 0 5 1 C6.35159831 3.72711871 7.33359567 6.1325413 8.25 9 C9.53172219 13.8697584 9.53172219 13.8697584 12 18 C14.31 12.06 16.62 6.12 19 0 C20.65 0 22.3 0 24 0 C22.3422142 6.18034181 20.2481251 12.12685029 17.875 18.0625 C17.47643799 19.06325562 17.47643799 19.06325562 17.06982422 20.08422852 C15.13128939 24.86871061 15.13128939 24.86871061 14 26 C12.33382885 26.04063832 10.66611905 26.042721 9 26 C7.67739984 22.79573933 6.36876329 19.58595147 5.0625 16.375 C4.68931641 15.47136719 4.31613281 14.56773437 3.93164062 13.63671875 C2.09239132 9.09658982 0.51452014 4.91652574 0 0 Z " fill="#898989" transform="translate(652,247)"/>
<path d="M0 0 C0.66 0.33 1.32 0.66 2 1 C2 2.65 2 4.3 2 6 C0.9790625 5.505 0.9790625 5.505 -0.0625 5 C-3.59199518 3.79846973 -6.2934027 3.65679655 -10 4 C-12.10358381 5.54262813 -12.84054159 6.68108317 -14 9 C-14.33719501 14.82614141 -14.33719501 14.82614141 -12 20 C-8.96967558 21.51516221 -6.34885038 21.17028053 -3 21 C-0.16621868 20.1025173 -0.16621868 20.1025173 2 19 C2 20.65 2 22.3 2 24 C-2.22822512 26.11411256 -6.34060249 26.75681016 -11 26 C-14.75212276 23.98497111 -16.63644095 22.54533858 -19 19 C-20.27424251 13.58446934 -20.09276454 9.1205941 -18 4 C-13.36803677 -1.82730858 -6.76341692 -2.25447231 0 0 Z " fill="#898989" transform="translate(934,248)"/>
<path d="M0 0 C4.29 0 8.58 0 13 0 C13 5.61 13 11.22 13 17 C8.71 17 4.42 17 0 17 C0 11.39 0 5.78 0 0 Z " fill="#B7B7B7" transform="translate(1222,65)"/>
<path d="M0 0 C7.59 0 15.18 0 23 0 C23 1.32 23 2.64 23 4 C20.03 4 17.06 4 14 4 C14 11.26 14 18.52 14 26 C12.35 26 10.7 26 9 26 C9 18.74 9 11.48 9 4 C6.03 4 3.06 4 0 4 C0 2.68 0 1.36 0 0 Z " fill="#888888" transform="translate(715,247)"/>
<path d="M0 0 C2.125 0 2.125 0 5 1 C7.25484692 3.49775783 9.14265083 6.19801963 11 9 C11.56267578 8.02546875 11.56267578 8.02546875 12.13671875 7.03125 C12.64847656 6.1959375 13.16023438 5.360625 13.6875 4.5 C14.43580078 3.24703125 14.43580078 3.24703125 15.19921875 1.96875 C17 0 17 0 19.70703125 -0.28125 C20.46371094 -0.1884375 21.22039062 -0.095625 22 0 C20.89250948 3.54396966 19.35103665 5.76813118 16.9375 8.5 C12.79804864 13.73726207 13.01965676 19.55258176 13 26 C11.35 26 9.7 26 8 26 C8.00902344 25.17757813 8.01804687 24.35515625 8.02734375 23.5078125 C7.81884999 15.65756907 6.51567288 11.1034911 1.49609375 5.0234375 C0 3 0 3 0 0 Z " fill="#898989" transform="translate(1078,247)"/>
<path d="M0 0 C1.65 0 3.3 0 5 0 C5 7.59 5 15.18 5 23 C8.96 23 12.92 23 17 23 C17 23.99 17 24.98 17 26 C11.39 26 5.78 26 0 26 C0 17.42 0 8.84 0 0 Z " fill="#878787" transform="translate(985,247)"/>
<path d="M0 0 C1.32 0 2.64 0 4 0 C4 7.59 4 15.18 4 23 C8.29 23 12.58 23 17 23 C17 23.99 17 24.98 17 26 C11.39 26 5.78 26 0 26 C0 17.42 0 8.84 0 0 Z " fill="#878787" transform="translate(849,247)"/>
<path d="M0 0 C1.32 0 2.64 0 4 0 C4 8.58 4 17.16 4 26 C2.68 26 1.36 26 0 26 C0 17.42 0 8.84 0 0 Z " fill="#878787" transform="translate(634,247)"/>
<path d="M0 0 C1.32 0 2.64 0 4 0 C4 1.98 4 3.96 4 6 C2.68 6 1.36 6 0 6 C0 4.02 0 2.04 0 0 Z " fill="#878787" transform="translate(1038,258)"/>
<path d="M0 0 C1.32 0 2.64 0 4 0 C4 1.98 4 3.96 4 6 C2.68 6 1.36 6 0 6 C0 4.02 0 2.04 0 0 Z " fill="#878787" transform="translate(806,258)"/>
</svg>
